<svg width="416" height="278" viewBox="0 0 416 278" fill="none" xmlns="http://www.w3.org/2000/svg">
<path d="M31.9997 1.52588e-05L384.001 1.38701e-05C401.674 1.4637e-05 416.001 14.3269 416.001 31.9999L416.001 78.1226C416.001 84.5537 414.032 90.8306 410.358 96.1092L409.39 97.5011C402.176 107.866 402.456 121.697 410.083 131.762C413.923 136.829 416.001 143.012 416.001 149.37L416.001 246.001C416.001 263.674 401.674 278.001 384.001 278.001L31.9995 278C14.3264 278 -0.000408338 263.673 -0.000377042 246L-0.000189682 149.369C-0.000158885 143.011 2.07806 136.828 5.91784 131.761C13.545 121.696 13.825 107.865 6.61135 97.5L5.64267 96.1081C1.96905 90.8295 -0.000156311 84.5527 -0.000186545 78.1216L-0.000337102 32.0001C-0.000397359 14.327 14.3265 1.52588e-05 31.9997 1.52588e-05Z" fill="#131313"/>
</svg>
